<svg width="1600" height="900" viewBox="0 0 1600 900" xmlns="http://www.w3.org/2000/svg" role="img" aria-label="agent-training-pipeline visual overview">
<defs>
  <linearGradient id="bg" x1="0" y1="0" x2="1600" y2="900" gradientUnits="userSpaceOnUse">
    <stop stop-color="#052e16"/><stop offset="1" stop-color="#0f172a"/>
  </linearGradient>
  <linearGradient id="acc" x1="120" y1="210" x2="1480" y2="210" gradientUnits="userSpaceOnUse">
    <stop stop-color="#22c55e"/><stop offset="1" stop-color="#86efac"/>
  </linearGradient>
  <clipPath id="c1"><rect x="145" y="360" width="350" height="360" rx="10"/></clipPath>
  <clipPath id="c2"><rect x="625" y="360" width="350" height="360" rx="10"/></clipPath>
  <clipPath id="c3"><rect x="1105" y="360" width="350" height="360" rx="10"/></clipPath>
</defs>
<rect width="1600" height="900" fill="url(#bg)"/>
<rect x="80" y="80" width="1440" height="740" rx="28" fill="#0b1220" stroke="#334155"/>
<text x="120" y="145" fill="#f8fafc" font-size="60" font-family="Inter, Segoe UI, Arial" font-weight="700">agent-training-pipeline</text>
<text x="120" y="192" fill="#94a3b8" font-size="28" font-family="Inter, Segoe UI, Arial">Visual Overview</text>
<line x1="120" y1="215" x2="1480" y2="215" stroke="url(#acc)" stroke-width="3"/>

<rect x="120" y="270" width="420" height="500" rx="18" fill="#111827" stroke="#263244"/>
<rect x="600" y="270" width="420" height="500" rx="18" fill="#111827" stroke="#263244"/>
<rect x="1080" y="270" width="420" height="500" rx="18" fill="#111827" stroke="#263244"/>

<text x="160" y="330" fill="#e2e8f0" font-size="28" font-family="Inter, Segoe UI, Arial" font-weight="600">Architecture</text>
<text x="640" y="330" fill="#e2e8f0" font-size="28" font-family="Inter, Segoe UI, Arial" font-weight="600">Execution</text>
<text x="1120" y="330" fill="#e2e8f0" font-size="28" font-family="Inter, Segoe UI, Arial" font-weight="600">Implementation Notes</text>

<g clip-path="url(#c1)"><text x="160" y="395" fill="#93c5fd" font-size="20" font-family="Inter, Segoe UI, Arial"><tspan x="160" dy="0">• Local finetune pipeline</tspan><tspan x="160" dy="34">• Dataset prep + QLoRA training</tspan><tspan x="160" dy="34">• Cross-hardware script</tspan><tspan x="160" dy="34">• orchestration</tspan></text></g>
<g clip-path="url(#c2)"><text x="640" y="395" fill="#a7f3d0" font-size="20" font-family="Inter, Segoe UI, Arial"><tspan x="640" dy="0">• Prepare datasets</tspan><tspan x="640" dy="34">• Launch training run</tspan><tspan x="640" dy="34">• Monitor checkpoints/logs</tspan><tspan x="640" dy="34">• Export/merge trained artifacts</tspan></text></g>
<g clip-path="url(#c3)"><text x="1120" y="395" fill="#fde68a" font-size="20" font-family="Inter, Segoe UI, Arial"><tspan x="1120" dy="0">• Core script: train.py</tspan><tspan x="1120" dy="34">• Mac paths: train_mac_*.sh</tspan><tspan x="1120" dy="34">• Datasets: hybrid_dataset/,</tspan><tspan x="1120" dy="34">• mlx_data/</tspan></text></g>
</svg>